<svg xmlns="http://www.w3.org/2000/svg" viewBox="0 0 640 400" role="img" aria-label="Mechanical keyboard">
  <rect width="640" height="400" fill="#f4f0e9"/>
  <rect x="92" y="116" width="456" height="188" rx="24" fill="#202124"/>
  <g fill="#ffffff">
    <rect x="126" y="148" width="48" height="34" rx="6"/>
    <rect x="188" y="148" width="48" height="34" rx="6"/>
    <rect x="250" y="148" width="48" height="34" rx="6"/>
    <rect x="312" y="148" width="48" height="34" rx="6"/>
    <rect x="374" y="148" width="48" height="34" rx="6"/>
    <rect x="436" y="148" width="48" height="34" rx="6"/>
    <rect x="126" y="198" width="70" height="34" rx="6"/>
    <rect x="210" y="198" width="48" height="34" rx="6"/>
    <rect x="272" y="198" width="48" height="34" rx="6"/>
    <rect x="334" y="198" width="48" height="34" rx="6"/>
    <rect x="396" y="198" width="88" height="34" rx="6"/>
    <rect x="126" y="248" width="118" height="34" rx="6"/>
    <rect x="258" y="248" width="136" height="34" rx="6"/>
    <rect x="408" y="248" width="76" height="34" rx="6"/>
  </g>
  <rect x="126" y="148" width="48" height="34" rx="6" fill="#c35f16"/>
  <rect x="436" y="248" width="48" height="34" rx="6" fill="#0f766e"/>
</svg>
